<mxfile host="app.diagrams.net" modified="2024-05-09T14:49:36.119Z" agent="Mozilla/5.0 (Windows NT 10.0; Win64; x64) AppleWebKit/537.36 (KHTML, like Gecko) Chrome/124.0.0.0 Safari/537.36" etag="3qjh3FWN-NCu0h8cFBFR" version="24.3.1" type="github">
  <diagram name="Page-1" id="nHGQaS3ORa_fqQJ9EQTd">
    <mxGraphModel dx="1050" dy="557" grid="1" gridSize="10" guides="1" tooltips="1" connect="1" arrows="1" fold="1" page="1" pageScale="1" pageWidth="850" pageHeight="1100" math="0" shadow="0">
      <root>
        <mxCell id="0" />
        <mxCell id="1" parent="0" />
        <mxCell id="Y0t7IMresA6_E3KGlvNs-40" style="edgeStyle=orthogonalEdgeStyle;rounded=0;orthogonalLoop=1;jettySize=auto;html=1;exitX=0.5;exitY=1;exitDx=0;exitDy=0;entryX=0.5;entryY=0;entryDx=0;entryDy=0;" edge="1" parent="1" source="Y0t7IMresA6_E3KGlvNs-20" target="Y0t7IMresA6_E3KGlvNs-37">
          <mxGeometry relative="1" as="geometry">
            <Array as="points">
              <mxPoint x="160" y="230" />
              <mxPoint x="60" y="230" />
            </Array>
          </mxGeometry>
        </mxCell>
        <mxCell id="Y0t7IMresA6_E3KGlvNs-41" style="edgeStyle=orthogonalEdgeStyle;rounded=0;orthogonalLoop=1;jettySize=auto;html=1;exitX=0.5;exitY=1;exitDx=0;exitDy=0;entryX=0.5;entryY=0;entryDx=0;entryDy=0;" edge="1" parent="1" source="Y0t7IMresA6_E3KGlvNs-20" target="Y0t7IMresA6_E3KGlvNs-38">
          <mxGeometry relative="1" as="geometry" />
        </mxCell>
        <mxCell id="Y0t7IMresA6_E3KGlvNs-42" style="edgeStyle=orthogonalEdgeStyle;rounded=0;orthogonalLoop=1;jettySize=auto;html=1;exitX=0.5;exitY=1;exitDx=0;exitDy=0;entryX=0.5;entryY=0;entryDx=0;entryDy=0;" edge="1" parent="1" source="Y0t7IMresA6_E3KGlvNs-20" target="Y0t7IMresA6_E3KGlvNs-39">
          <mxGeometry relative="1" as="geometry" />
        </mxCell>
        <mxCell id="Y0t7IMresA6_E3KGlvNs-20" value="dashboard.view.php" style="whiteSpace=wrap;html=1;" vertex="1" parent="1">
          <mxGeometry x="100" y="160" width="120" height="60" as="geometry" />
        </mxCell>
        <mxCell id="Y0t7IMresA6_E3KGlvNs-44" style="edgeStyle=orthogonalEdgeStyle;rounded=0;orthogonalLoop=1;jettySize=auto;html=1;exitX=0.5;exitY=1;exitDx=0;exitDy=0;entryX=0.5;entryY=0;entryDx=0;entryDy=0;" edge="1" parent="1" source="Y0t7IMresA6_E3KGlvNs-26" target="Y0t7IMresA6_E3KGlvNs-43">
          <mxGeometry relative="1" as="geometry" />
        </mxCell>
        <mxCell id="Y0t7IMresA6_E3KGlvNs-50" style="edgeStyle=orthogonalEdgeStyle;rounded=0;orthogonalLoop=1;jettySize=auto;html=1;entryX=1;entryY=0.5;entryDx=0;entryDy=0;" edge="1" parent="1" source="Y0t7IMresA6_E3KGlvNs-26" target="Y0t7IMresA6_E3KGlvNs-20">
          <mxGeometry relative="1" as="geometry" />
        </mxCell>
        <mxCell id="Y0t7IMresA6_E3KGlvNs-26" value="dashboard.cntrl.php" style="shape=process;whiteSpace=wrap;html=1;backgroundOutline=1;" vertex="1" parent="1">
          <mxGeometry x="320" y="160" width="120" height="60" as="geometry" />
        </mxCell>
        <mxCell id="Y0t7IMresA6_E3KGlvNs-46" style="edgeStyle=orthogonalEdgeStyle;rounded=0;orthogonalLoop=1;jettySize=auto;html=1;exitX=0.5;exitY=1;exitDx=0;exitDy=0;exitPerimeter=0;entryX=0.5;entryY=0;entryDx=0;entryDy=0;" edge="1" parent="1" source="Y0t7IMresA6_E3KGlvNs-28" target="Y0t7IMresA6_E3KGlvNs-26">
          <mxGeometry relative="1" as="geometry" />
        </mxCell>
        <mxCell id="Y0t7IMresA6_E3KGlvNs-51" style="edgeStyle=orthogonalEdgeStyle;rounded=0;orthogonalLoop=1;jettySize=auto;html=1;entryX=0.5;entryY=0;entryDx=0;entryDy=0;" edge="1" parent="1" source="Y0t7IMresA6_E3KGlvNs-28" target="Y0t7IMresA6_E3KGlvNs-20">
          <mxGeometry relative="1" as="geometry" />
        </mxCell>
        <mxCell id="Y0t7IMresA6_E3KGlvNs-28" value="dbh.php" style="shape=cylinder3;whiteSpace=wrap;html=1;boundedLbl=1;backgroundOutline=1;size=15;" vertex="1" parent="1">
          <mxGeometry x="30" y="20" width="110" height="80" as="geometry" />
        </mxCell>
        <mxCell id="Y0t7IMresA6_E3KGlvNs-47" style="edgeStyle=orthogonalEdgeStyle;rounded=0;orthogonalLoop=1;jettySize=auto;html=1;entryX=0.5;entryY=1;entryDx=0;entryDy=0;" edge="1" parent="1" source="Y0t7IMresA6_E3KGlvNs-37" target="Y0t7IMresA6_E3KGlvNs-43">
          <mxGeometry relative="1" as="geometry">
            <Array as="points">
              <mxPoint x="60" y="310" />
              <mxPoint x="350" y="310" />
            </Array>
          </mxGeometry>
        </mxCell>
        <mxCell id="Y0t7IMresA6_E3KGlvNs-37" value="customer count" style="whiteSpace=wrap;html=1;" vertex="1" parent="1">
          <mxGeometry x="30" y="250" width="60" height="30" as="geometry" />
        </mxCell>
        <mxCell id="Y0t7IMresA6_E3KGlvNs-48" style="edgeStyle=orthogonalEdgeStyle;rounded=0;orthogonalLoop=1;jettySize=auto;html=1;exitX=0.5;exitY=1;exitDx=0;exitDy=0;entryX=0.5;entryY=1;entryDx=0;entryDy=0;" edge="1" parent="1" source="Y0t7IMresA6_E3KGlvNs-38" target="Y0t7IMresA6_E3KGlvNs-43">
          <mxGeometry relative="1" as="geometry" />
        </mxCell>
        <mxCell id="Y0t7IMresA6_E3KGlvNs-38" value="sales" style="whiteSpace=wrap;html=1;" vertex="1" parent="1">
          <mxGeometry x="100" y="250" width="60" height="30" as="geometry" />
        </mxCell>
        <mxCell id="Y0t7IMresA6_E3KGlvNs-49" style="edgeStyle=orthogonalEdgeStyle;rounded=0;orthogonalLoop=1;jettySize=auto;html=1;exitX=0.5;exitY=1;exitDx=0;exitDy=0;entryX=0.5;entryY=1;entryDx=0;entryDy=0;" edge="1" parent="1" source="Y0t7IMresA6_E3KGlvNs-39" target="Y0t7IMresA6_E3KGlvNs-43">
          <mxGeometry relative="1" as="geometry" />
        </mxCell>
        <mxCell id="Y0t7IMresA6_E3KGlvNs-39" value="total revenue" style="whiteSpace=wrap;html=1;" vertex="1" parent="1">
          <mxGeometry x="170" y="250" width="60" height="30" as="geometry" />
        </mxCell>
        <mxCell id="Y0t7IMresA6_E3KGlvNs-43" value="filter" style="whiteSpace=wrap;html=1;" vertex="1" parent="1">
          <mxGeometry x="320" y="250" width="60" height="30" as="geometry" />
        </mxCell>
      </root>
    </mxGraphModel>
  </diagram>
</mxfile>
